<svg xmlns="http://www.w3.org/2000/svg" version="1.1" xmlns:xlink="http://www.w3.org/1999/xlink" xmlns:svgjs="http://svgjs.dev/svgjs" width="1000" height="1000" viewBox="0 0 1000 1000"><rect width="1000" height="1000" fill="#ffffff"></rect><g transform="matrix(0.7,0,0,0.7,150.07466666666664,357.26533333333333)"><svg viewBox="0 0 375 153" data-background-color="#398378" preserveAspectRatio="xMidYMid meet" height="408" width="1000" xmlns="http://www.w3.org/2000/svg" xmlns:xlink="http://www.w3.org/1999/xlink"><g id="tight-bounds" transform="matrix(1,0,0,1,-0.03976036071776434,-0.034965942382797266)"><svg viewBox="0 0 375.07952880859375 153.06980895996094" height="153.06980895996094" width="375.07952880859375"><g><svg></svg></g><g><svg viewBox="0 0 375.07952880859375 153.06980895996094" height="153.06980895996094" width="375.07952880859375"><g transform="matrix(1,0,0,1,-10.220239639282227,-51.31303405761719)"><path xmlns="http://www.w3.org/2000/svg" d="M10.22 195.887v-144.574h375.08v144.574l-18.793 0 0-3.514h15.279v-137.546h-368.051v137.546h25.755l0 3.514z" fill="#000000" fill-rule="nonzero" stroke="none" stroke-width="1" stroke-linecap="butt" stroke-linejoin="miter" stroke-miterlimit="10" stroke-dasharray="" stroke-dashoffset="0" font-family="none" font-weight="none" font-size="none" text-anchor="none" style="mix-blend-mode: normal" data-fill-palette-color="tertiary"></path><g><path xmlns="http://www.w3.org/2000/svg" d="M50.033 185.452v-1.817h5.173v1.817h-1.516l2.998 5.122 3.209-5.122h-1.663v-1.817h5.173v1.817h-1.357l-4.479 6.793v5.522h1.641v1.809h-5.173v-1.809h1.46v-5.574l-4.226-6.741zM68.86 194.127v0c0.006-0.861 0.144-1.647 0.414-2.356 0.27-0.706 0.648-1.314 1.133-1.822 0.482-0.508 1.057-0.899 1.722-1.172 0.666-0.276 1.398-0.413 2.197-0.413v0c0.807 0 1.545 0.138 2.214 0.413 0.669 0.273 1.242 0.659 1.719 1.159 0.477 0.503 0.849 1.108 1.115 1.818 0.267 0.706 0.401 1.49 0.401 2.352v0c0 0.85-0.134 1.631-0.401 2.343-0.267 0.709-0.639 1.321-1.115 1.835-0.477 0.511-1.05 0.909-1.719 1.193-0.669 0.284-1.407 0.426-2.214 0.426v0c-0.818 0-1.561-0.141-2.227-0.422-0.666-0.281-1.238-0.676-1.714-1.184-0.477-0.508-0.849-1.116-1.116-1.822-0.267-0.709-0.403-1.492-0.409-2.348zM70.932 194.127v0c0 0.626 0.089 1.19 0.267 1.693 0.178 0.505 0.424 0.935 0.737 1.288 0.31 0.356 0.671 0.63 1.081 0.822 0.411 0.192 0.847 0.289 1.309 0.289v0c0.485 0 0.936-0.095 1.353-0.284 0.416-0.19 0.78-0.461 1.089-0.814 0.307-0.353 0.548-0.782 0.724-1.288 0.175-0.505 0.263-1.074 0.263-1.706v0c0-0.658-0.088-1.242-0.263-1.753-0.175-0.514-0.415-0.942-0.719-1.284-0.304-0.345-0.668-0.604-1.09-0.779-0.419-0.175-0.872-0.263-1.357-0.263v0c-0.462 0-0.899 0.088-1.309 0.263-0.411 0.175-0.771 0.435-1.081 0.779-0.313 0.342-0.559 0.77-0.737 1.284-0.178 0.511-0.267 1.095-0.267 1.753zM92.671 190.492v-1.809h3.515v9.084h1.206v1.809h-3.175v-1.008c-0.491 0.376-1.025 0.671-1.602 0.883-0.58 0.21-1.199 0.314-1.856 0.314v0c-0.548 0-1.045-0.079-1.491-0.236-0.445-0.158-0.823-0.403-1.133-0.737-0.313-0.333-0.554-0.755-0.723-1.266-0.167-0.511-0.25-1.121-0.25-1.831v0-5.203h-1.473v-1.809h3.515v6.779c0 0.836 0.192 1.467 0.577 1.896 0.385 0.428 0.939 0.642 1.662 0.641v0c0.425 0 0.874-0.078 1.349-0.232 0.474-0.155 0.922-0.369 1.344-0.642v0-6.633zM112.364 188.618v2.365h-1.998v-0.672c-0.233 0-0.469 0.045-0.711 0.133-0.241 0.086-0.468 0.218-0.681 0.397-0.21 0.181-0.393 0.409-0.551 0.685-0.158 0.279-0.271 0.606-0.34 0.982v0 5.259h1.852v1.809h-5.406v-1.809h1.503l0.009-7.275h-1.512v-1.809h3.48v1.503c0.126-0.224 0.268-0.432 0.427-0.625 0.158-0.195 0.333-0.365 0.525-0.508 0.192-0.144 0.406-0.256 0.642-0.336 0.235-0.08 0.49-0.121 0.762-0.12v0c0.365 0 0.708 0 1.03 0 0.322 0 0.645 0.007 0.969 0.021zM117.791 199.576zM135.749 198.775v-0.155c-0.356 0.379-0.771 0.673-1.245 0.883-0.474 0.21-1.012 0.314-1.616 0.314v0c-0.735 0-1.42-0.128-2.054-0.383-0.635-0.256-1.186-0.63-1.654-1.124-0.465-0.494-0.83-1.101-1.094-1.822-0.261-0.718-0.392-1.539-0.392-2.464v0c0-0.841 0.126-1.608 0.379-2.3 0.253-0.689 0.61-1.278 1.072-1.766 0.462-0.485 1.019-0.863 1.672-1.133 0.652-0.27 1.377-0.405 2.175-0.405v0c0.548 0 1.041 0.06 1.477 0.181 0.439 0.123 0.866 0.336 1.28 0.637v0-0.555h1.955v10.462c0 1.723-0.408 3.027-1.223 3.911-0.818 0.884-2.089 1.327-3.812 1.327v0c-0.379 0-0.775-0.029-1.189-0.086-0.413-0.055-0.823-0.144-1.228-0.267-0.402-0.123-0.794-0.28-1.176-0.47-0.382-0.19-0.734-0.421-1.055-0.693v0l1.051-1.585c0.21 0.181 0.449 0.349 0.719 0.504 0.27 0.152 0.559 0.283 0.866 0.392 0.31 0.109 0.63 0.195 0.961 0.258 0.327 0.063 0.656 0.095 0.986 0.095v0c0.54 0 1.008-0.056 1.404-0.168 0.396-0.112 0.722-0.31 0.978-0.595 0.256-0.284 0.447-0.668 0.573-1.15 0.126-0.485 0.19-1.1 0.19-1.843zM133.143 198.116v0c0.322 0 0.616-0.032 0.883-0.095 0.264-0.063 0.505-0.146 0.723-0.25 0.218-0.101 0.409-0.217 0.573-0.349 0.167-0.135 0.309-0.276 0.427-0.422v0-5.961c-0.356-0.316-0.768-0.544-1.237-0.685-0.465-0.141-0.943-0.211-1.434-0.211v0c-0.462 0-0.897 0.086-1.305 0.258-0.405 0.172-0.761 0.422-1.068 0.75-0.304 0.33-0.544 0.734-0.72 1.21-0.175 0.477-0.263 1.024-0.262 1.641v0c0 0.672 0.085 1.265 0.254 1.779 0.167 0.511 0.401 0.94 0.702 1.288 0.302 0.347 0.663 0.609 1.085 0.784 0.419 0.175 0.879 0.263 1.379 0.263zM151.182 190.492v-1.809h3.51v9.084h1.21v1.809h-3.174v-1.008c-0.491 0.376-1.027 0.671-1.607 0.883-0.577 0.21-1.196 0.314-1.856 0.314v0c-0.546 0-1.041-0.079-1.486-0.236-0.445-0.158-0.824-0.403-1.137-0.737-0.31-0.333-0.55-0.755-0.72-1.266-0.169-0.511-0.254-1.121-0.254-1.831v0-5.203h-1.469v-1.809h3.511v6.779c0 0.836 0.192 1.467 0.577 1.896 0.388 0.428 0.942 0.642 1.663 0.641v0c0.428 0 0.879-0.078 1.352-0.232 0.474-0.155 0.92-0.369 1.34-0.642v0-6.633zM162.954 190.492v-1.809h3.553v9.084h1.641v1.809h-5.173v-1.809h1.555v-7.275zM164.164 184.823v0c0-0.184 0.036-0.358 0.108-0.521 0.075-0.167 0.174-0.31 0.297-0.431 0.121-0.123 0.266-0.223 0.435-0.297 0.167-0.072 0.345-0.108 0.534-0.107v0c0.184 0 0.358 0.036 0.521 0.107 0.167 0.075 0.31 0.174 0.431 0.297 0.123 0.121 0.223 0.264 0.297 0.431 0.072 0.164 0.108 0.337 0.108 0.521v0c0 0.19-0.036 0.368-0.108 0.534-0.075 0.169-0.174 0.319-0.297 0.448-0.121 0.129-0.264 0.231-0.431 0.306-0.164 0.072-0.337 0.108-0.521 0.108v0c-0.19 0-0.368-0.036-0.534-0.108-0.169-0.075-0.314-0.177-0.435-0.306-0.123-0.129-0.223-0.279-0.297-0.448-0.072-0.167-0.108-0.345-0.108-0.534zM180.592 185.021v-1.809h3.437v14.555h1.603v1.809h-3.558v-0.896c-0.35 0.359-0.757 0.639-1.219 0.84-0.462 0.198-0.988 0.297-1.577 0.297v0c-0.735 0-1.42-0.128-2.054-0.383-0.635-0.256-1.186-0.63-1.654-1.124-0.465-0.494-0.83-1.101-1.094-1.822-0.261-0.718-0.392-1.539-0.392-2.464v0c0-0.841 0.126-1.608 0.379-2.3 0.253-0.689 0.61-1.278 1.072-1.766 0.462-0.485 1.019-0.863 1.671-1.133 0.652-0.27 1.377-0.405 2.176-0.405v0c0.525 0 1.006 0.057 1.443 0.172 0.434 0.115 0.85 0.316 1.249 0.603v0-4.174zM179.532 198.116v0c0.58 0 1.067-0.086 1.461-0.259 0.393-0.172 0.754-0.431 1.081-0.775v0-6.099c-0.35-0.293-0.752-0.507-1.206-0.642-0.457-0.132-0.923-0.198-1.4-0.198v0c-0.462 0-0.897 0.086-1.305 0.258-0.405 0.172-0.761 0.422-1.069 0.75-0.304 0.33-0.544 0.734-0.719 1.21-0.175 0.477-0.263 1.024-0.263 1.641v0c0 0.672 0.085 1.265 0.254 1.779 0.167 0.511 0.401 0.94 0.703 1.288 0.302 0.347 0.663 0.609 1.085 0.784 0.419 0.175 0.879 0.263 1.378 0.263zM201.418 194.381h-7.844c0 0.307 0.023 0.589 0.069 0.844 0.046 0.258 0.111 0.503 0.194 0.733v0c0.258 0.701 0.673 1.229 1.245 1.585 0.571 0.353 1.219 0.53 1.942 0.53v0c0.566 0 1.117-0.079 1.654-0.237 0.537-0.158 1.1-0.405 1.689-0.741v0l0.788 1.335c-0.715 0.491-1.433 0.856-2.154 1.094-0.724 0.238-1.475 0.358-2.252 0.358v0c-0.735 0-1.417-0.123-2.046-0.371-0.626-0.244-1.166-0.609-1.62-1.094-0.451-0.482-0.804-1.084-1.059-1.805-0.256-0.724-0.383-1.565-0.384-2.524v0c0-0.778 0.108-1.513 0.323-2.205 0.218-0.689 0.543-1.292 0.974-1.809 0.431-0.514 0.965-0.922 1.602-1.223 0.64-0.302 1.384-0.452 2.231-0.453v0c0.821 0 1.506 0.123 2.055 0.371 0.551 0.25 1.001 0.58 1.348 0.99 0.347 0.411 0.61 0.879 0.788 1.405 0.178 0.525 0.303 1.061 0.375 1.606v0c0.034 0.267 0.057 0.537 0.069 0.81 0.009 0.276 0.013 0.543 0.013 0.801zM196.632 190.039v0c-0.454 0-0.851 0.065-1.193 0.194-0.339 0.129-0.627 0.314-0.865 0.556-0.238 0.241-0.429 0.538-0.573 0.892-0.144 0.35-0.251 0.742-0.323 1.175v0h5.646c-0.026-0.408-0.09-0.782-0.193-1.124-0.101-0.345-0.256-0.643-0.466-0.896-0.212-0.253-0.482-0.449-0.809-0.59-0.33-0.138-0.738-0.207-1.224-0.207zM207.25 199.576zM220.387 185.168v3.515h2.559v1.585h-2.58l-0.03 6.288c0 0.428 0.049 0.775 0.146 1.043 0.098 0.267 0.256 0.451 0.474 0.551 0.218 0.103 0.464 0.155 0.736 0.155v0c0.296 0 0.556-0.027 0.78-0.082 0.224-0.052 0.469-0.141 0.737-0.267v0l0.452 1.314c-0.339 0.175-0.693 0.314-1.064 0.418-0.37 0.101-0.808 0.151-1.314 0.151v0c-0.477 0-0.893-0.057-1.249-0.173-0.353-0.118-0.65-0.313-0.892-0.585-0.241-0.273-0.422-0.639-0.542-1.099-0.118-0.459-0.177-1.032-0.177-1.718v0l0.03-5.996h-1.736v-1.585h1.758v-2.611zM229.321 194.127v0c0.009-0.861 0.148-1.647 0.417-2.356 0.27-0.706 0.646-1.314 1.129-1.822 0.482-0.508 1.057-0.899 1.723-1.172 0.666-0.276 1.4-0.413 2.201-0.413v0c0.804 0 1.542 0.138 2.214 0.413 0.669 0.273 1.242 0.659 1.718 1.159 0.477 0.503 0.849 1.108 1.116 1.818 0.264 0.706 0.396 1.49 0.396 2.352v0c0 0.85-0.132 1.631-0.396 2.343-0.267 0.709-0.639 1.321-1.116 1.835-0.477 0.511-1.05 0.909-1.718 1.193-0.672 0.284-1.41 0.426-2.214 0.426v0c-0.821 0-1.565-0.141-2.231-0.422-0.666-0.281-1.238-0.676-1.715-1.184-0.477-0.508-0.849-1.116-1.115-1.822-0.264-0.709-0.401-1.492-0.409-2.348zM231.392 194.127v0c0 0.626 0.089 1.19 0.267 1.693 0.181 0.505 0.426 0.935 0.737 1.288 0.313 0.356 0.675 0.63 1.085 0.822 0.411 0.192 0.847 0.289 1.31 0.289v0c0.482 0 0.932-0.095 1.348-0.284 0.419-0.19 0.782-0.461 1.09-0.814 0.307-0.353 0.548-0.782 0.723-1.288 0.178-0.505 0.267-1.074 0.268-1.706v0c0-0.658-0.089-1.242-0.268-1.753-0.175-0.514-0.415-0.942-0.719-1.284-0.304-0.345-0.666-0.604-1.085-0.779-0.422-0.175-0.874-0.263-1.357-0.263v0c-0.462 0-0.899 0.088-1.31 0.263-0.411 0.175-0.772 0.435-1.085 0.779-0.31 0.342-0.556 0.77-0.737 1.284-0.178 0.511-0.267 1.095-0.267 1.753zM245.52 199.576zM255.957 185.452v-1.817h5.173v1.817h-1.598v12.315h5.501c0.112 0 0.224-0.026 0.336-0.078 0.112-0.055 0.214-0.123 0.305-0.206 0.092-0.083 0.165-0.179 0.22-0.289 0.057-0.109 0.086-0.22 0.086-0.332v0-2.007h1.994v4.721h-12.017v-1.809h1.516v-12.315zM273.208 194.127v0c0.006-0.861 0.144-1.647 0.413-2.356 0.27-0.706 0.648-1.314 1.133-1.822 0.482-0.508 1.057-0.899 1.723-1.172 0.666-0.276 1.398-0.413 2.197-0.413v0c0.807 0 1.545 0.138 2.214 0.413 0.672 0.273 1.246 0.659 1.723 1.159 0.477 0.503 0.847 1.108 1.111 1.818 0.267 0.706 0.401 1.49 0.401 2.352v0c0 0.85-0.134 1.631-0.401 2.343-0.264 0.709-0.635 1.321-1.111 1.835-0.477 0.511-1.051 0.909-1.723 1.193-0.669 0.284-1.407 0.426-2.214 0.426v0c-0.818 0-1.561-0.141-2.227-0.422-0.666-0.281-1.238-0.676-1.714-1.184-0.477-0.508-0.849-1.116-1.116-1.822-0.267-0.709-0.403-1.492-0.409-2.348zM275.28 194.127v0c0 0.626 0.089 1.19 0.267 1.693 0.178 0.505 0.424 0.935 0.736 1.288 0.313 0.356 0.675 0.63 1.086 0.822 0.408 0.192 0.843 0.289 1.305 0.289v0c0.485 0 0.936-0.095 1.352-0.284 0.416-0.19 0.78-0.461 1.09-0.814 0.307-0.353 0.548-0.782 0.724-1.288 0.175-0.505 0.263-1.074 0.262-1.706v0c0-0.658-0.088-1.242-0.262-1.753-0.175-0.514-0.415-0.942-0.72-1.284-0.304-0.345-0.668-0.604-1.089-0.779-0.419-0.175-0.872-0.263-1.357-0.263v0c-0.462 0-0.897 0.088-1.305 0.263-0.411 0.175-0.772 0.435-1.086 0.779-0.313 0.342-0.559 0.77-0.736 1.284-0.178 0.511-0.267 1.095-0.267 1.753zM297.63 199.576v-1.809h1.534v-4.975c0-0.833-0.211-1.464-0.633-1.895-0.425-0.434-1.034-0.65-1.827-0.651v0c-0.457 0-0.916 0.109-1.378 0.328-0.462 0.218-0.9 0.488-1.314 0.809v0 6.384h1.538v1.809h-5.091v-1.809h1.516v-7.275h-1.516v-1.809h3.471v1.283h0.022c0.23-0.204 0.477-0.398 0.741-0.581 0.261-0.181 0.536-0.339 0.822-0.474 0.287-0.132 0.587-0.237 0.901-0.314 0.313-0.078 0.64-0.116 0.982-0.117v0c0.583 0 1.11 0.08 1.581 0.241 0.468 0.164 0.867 0.409 1.197 0.737 0.33 0.33 0.584 0.754 0.762 1.271 0.178 0.514 0.267 1.121 0.267 1.822v0 5.216h1.517v1.809zM315.471 185.021v-1.809h3.437v14.555h1.598v1.809h-3.553v-0.896c-0.35 0.359-0.757 0.639-1.219 0.84-0.462 0.198-0.988 0.297-1.577 0.297v0c-0.738 0-1.424-0.128-2.058-0.383-0.635-0.256-1.185-0.63-1.65-1.124-0.465-0.494-0.83-1.101-1.094-1.822-0.261-0.718-0.392-1.539-0.392-2.464v0c0-0.841 0.125-1.608 0.375-2.3 0.253-0.689 0.61-1.278 1.072-1.766 0.465-0.485 1.024-0.863 1.676-1.133 0.652-0.27 1.377-0.405 2.175-0.405v0c0.525 0 1.005 0.057 1.439 0.172 0.436 0.115 0.854 0.316 1.253 0.603v0-4.174zM314.407 198.116v0c0.583 0 1.071-0.086 1.465-0.259 0.391-0.172 0.751-0.431 1.081-0.775v0-6.099c-0.35-0.293-0.754-0.507-1.21-0.642-0.454-0.132-0.919-0.198-1.396-0.198v0c-0.465 0-0.9 0.086-1.305 0.258-0.408 0.172-0.764 0.422-1.068 0.75-0.304 0.33-0.544 0.734-0.72 1.21-0.175 0.477-0.263 1.024-0.262 1.641v0c0 0.672 0.083 1.265 0.249 1.779 0.169 0.511 0.405 0.94 0.707 1.288 0.302 0.347 0.662 0.609 1.081 0.784 0.422 0.175 0.882 0.263 1.378 0.263zM326.455 194.127v0c0.006-0.861 0.144-1.647 0.413-2.356 0.27-0.706 0.648-1.314 1.133-1.822 0.482-0.508 1.057-0.899 1.723-1.172 0.666-0.276 1.398-0.413 2.197-0.413v0c0.807 0 1.545 0.138 2.214 0.413 0.669 0.273 1.242 0.659 1.718 1.159 0.477 0.503 0.849 1.108 1.116 1.818 0.267 0.706 0.401 1.49 0.401 2.352v0c0 0.85-0.134 1.631-0.401 2.343-0.267 0.709-0.639 1.321-1.116 1.835-0.477 0.511-1.05 0.909-1.718 1.193-0.669 0.284-1.407 0.426-2.214 0.426v0c-0.818 0-1.561-0.141-2.227-0.422-0.666-0.281-1.238-0.676-1.714-1.184-0.477-0.508-0.849-1.116-1.116-1.822-0.267-0.709-0.403-1.492-0.409-2.348zM328.527 194.127v0c0 0.626 0.089 1.19 0.267 1.693 0.178 0.505 0.424 0.935 0.736 1.288 0.31 0.356 0.671 0.63 1.081 0.822 0.411 0.192 0.847 0.289 1.31 0.289v0c0.485 0 0.936-0.095 1.352-0.284 0.416-0.19 0.78-0.461 1.09-0.814 0.307-0.353 0.548-0.782 0.724-1.288 0.175-0.505 0.263-1.074 0.262-1.706v0c0-0.658-0.088-1.242-0.262-1.753-0.175-0.514-0.415-0.942-0.72-1.284-0.304-0.345-0.668-0.604-1.089-0.779-0.419-0.175-0.872-0.263-1.357-0.263v0c-0.462 0-0.899 0.088-1.31 0.263-0.411 0.175-0.771 0.435-1.081 0.779-0.313 0.342-0.559 0.77-0.736 1.284-0.178 0.511-0.267 1.095-0.267 1.753zM350.877 199.576v-1.809h1.534v-4.975c0-0.833-0.212-1.464-0.638-1.895-0.422-0.434-1.029-0.65-1.822-0.651v0c-0.457 0-0.916 0.109-1.378 0.328-0.462 0.218-0.9 0.488-1.314 0.809v0 6.384h1.534v1.809h-5.087v-1.809h1.512v-7.275h-1.512v-1.809h3.467v1.283h0.022c0.233-0.204 0.48-0.398 0.74-0.581 0.264-0.181 0.54-0.339 0.827-0.474 0.287-0.132 0.587-0.237 0.901-0.314 0.31-0.078 0.637-0.116 0.982-0.117v0c0.583 0 1.108 0.08 1.576 0.241 0.471 0.164 0.872 0.409 1.202 0.737 0.327 0.33 0.581 0.754 0.762 1.271 0.178 0.514 0.267 1.121 0.267 1.822v0 5.216h1.512v1.809z" fill="#000000" fill-rule="nonzero" stroke="none" stroke-width="1" stroke-linecap="butt" stroke-linejoin="miter" stroke-miterlimit="10" stroke-dasharray="" stroke-dashoffset="0" font-family="none" font-weight="none" font-size="none" text-anchor="none" style="mix-blend-mode: normal" data-fill-palette-color="secondary"></path></g></g><g transform="matrix(1,0,0,1,29.331764404296877,49.60728857533964)"><svg viewBox="0 0 316.416 53.85523180928167" height="53.85523180928167" width="316.416"><g><svg viewBox="0 0 316.416 53.85523180928167" height="53.85523180928167" width="316.416"><g><svg viewBox="0 0 417.1879864542725 71.0070151905792" height="53.85523180928167" width="316.416"><g transform="matrix(1,0,0,1,100.77198645427251,9.813559986541698)"><svg viewBox="0 0 316.416 51.3798952174958" height="51.3798952174958" width="316.416"><g id="textblocktransform"><svg viewBox="0 0 316.416 51.3798952174958" height="51.3798952174958" width="316.416" id="textblock"><g><svg viewBox="0 0 316.416 51.3798952174958" height="51.3798952174958" width="316.416"><g transform="matrix(1,0,0,1,0,0)"><svg width="316.416" viewBox="3.490000009536743 -37.9900016784668 304.7300109863281 49.4900016784668" height="51.3798952174958" data-palette-color="#ffffff"><path d="M29.49-32.81L29.49-37.01 41.5-37.01 41.5-32.81 37.99-32.81 37.99-4.2 41.5-4.2 41.5 0 29.49 0 29.49-4.2 33.2-4.2 33.2-17.5 11.79-17.5 11.79-4.2 15.5-4.2 15.5 0 3.49 0 3.49-4.2 7.01-4.2 7.01-32.81 3.49-32.81 3.49-37.01 15.5-37.01 15.5-32.81 11.79-32.81 11.79-21.61 33.2-21.61 33.2-32.81 29.49-32.81ZM62.3 0L62.3-2.34Q60.86-1 59.12-0.15 57.37 0.71 55.15 0.71L55.15 0.71Q53.29 0.71 51.74 0.12 50.19-0.46 49.07-1.48 47.95-2.49 47.32-3.83 46.7-5.18 46.7-6.69L46.7-6.69Q46.7-8.3 47.18-9.55 47.65-10.79 48.45-11.71 49.24-12.62 50.3-13.24 51.36-13.87 52.52-14.25 53.68-14.62 54.89-14.78 56.1-14.94 57.2-14.94L57.2-14.94Q58.96-14.94 60.15-14.83 61.35-14.72 62.33-14.53L62.33-14.53 62.35-16.6Q62.35-17.94 61.96-18.93 61.57-19.92 60.86-20.57 60.15-21.22 59.16-21.53 58.18-21.85 56.96-21.85L56.96-21.85Q55.81-21.85 54.76-21.69 53.71-21.53 52.79-21.28 51.88-21.02 51.11-20.69 50.34-20.36 49.8-20L49.8-20 48.31-23.14Q49.22-23.73 50.29-24.23 51.36-24.73 52.55-25.09 53.73-25.44 54.97-25.65 56.2-25.85 57.39-25.85L57.39-25.85Q59.59-25.85 61.35-25.33 63.11-24.8 64.33-23.71 65.55-22.61 66.21-20.91 66.87-19.21 66.87-16.85L66.87-16.85 66.84-4.2 69.65-4.2 69.65 0 62.3 0ZM56.15-3.1L56.15-3.1Q57.05-3.1 57.96-3.32 58.86-3.54 59.67-3.92 60.47-4.3 61.15-4.8 61.84-5.3 62.3-5.83L62.3-5.83 62.33-11.55 57.05-11.55Q55.73-11.55 54.65-11.25 53.56-10.96 52.77-10.4 51.98-9.84 51.54-9.01 51.1-8.18 51.1-7.1L51.1-7.1Q51.1-6.1 51.46-5.36 51.83-4.61 52.5-4.11 53.17-3.61 54.1-3.36 55.03-3.1 56.15-3.1ZM92.96-25.44L92.96-19.95 88.33-19.95 88.33-21.51Q87.52-21.51 86.68-21.2 85.83-20.9 85.1-20.28 84.37-19.65 83.82-18.69 83.27-17.72 83.03-16.41L83.03-16.41 83.03-4.2 87.32-4.2 87.32 0 74.78 0 74.78-4.2 78.27-4.2 78.29-21.09 74.78-21.09 74.78-25.29 82.86-25.29 82.86-21.8Q83.3-22.58 83.85-23.25 84.39-23.93 85.07-24.43 85.74-24.93 86.56-25.21 87.37-25.49 88.33-25.49L88.33-25.49Q89.59-25.49 90.72-25.49 91.84-25.49 92.96-25.44L92.96-25.44ZM96.26-21.09L96.26-25.29 105-25.29 105-21.09 102.63-21.09 108.88-3.66 114.98-21.09 113.44-21.09 113.44-25.29 121.45-25.29 121.45-21.09 119.28-21.09 111 0.39 106.51 0.39 98.26-21.09 96.26-21.09ZM147.57-12.06L129.36-12.06Q129.36-10.99 129.52-10.1 129.68-9.2 129.97-8.4L129.97-8.4Q130.87-5.96 132.86-4.72 134.85-3.49 137.37-3.49L137.37-3.49Q139.35-3.49 141.21-4.04 143.08-4.59 145.13-5.76L145.13-5.76 146.96-2.66Q144.47-0.95 141.96-0.12 139.44 0.71 136.73 0.71L136.73 0.71Q134.17 0.71 131.98-0.15 129.8-1 128.22-2.69 126.65-4.37 125.76-6.88 124.87-9.4 124.87-12.74L124.87-12.74Q124.87-15.45 125.62-17.86 126.38-20.26 127.88-22.06 129.38-23.85 131.61-24.9 133.83-25.95 136.78-25.95L136.78-25.95Q139.64-25.95 141.55-25.09 143.47-24.22 144.68-22.79 145.89-21.36 146.51-19.53 147.13-17.7 147.38-15.8L147.38-15.8Q147.5-14.87 147.54-13.92 147.57-12.96 147.57-12.06L147.57-12.06ZM136.46-22.14L136.46-22.14Q134.88-22.14 133.69-21.69 132.51-21.24 131.68-20.4 130.85-19.56 130.35-18.33 129.85-17.11 129.6-15.6L129.6-15.6 142.71-15.6Q142.62-17.02 142.26-18.21 141.91-19.41 141.18-20.29 140.44-21.17 139.3-21.66 138.15-22.14 136.46-22.14ZM152.06-21.09L152.06-25.29 161.66-25.29 161.66-21.09 158.65-21.09 164.59-4.96 170.79-21.09 167.81-21.09 167.81-25.29 177.4-25.29 177.4-21.09 174.79-21.09 163.54 7.3 167 7.3 167 11.5 156.8 11.5 156.8 7.3 159.88 7.3 162.56 0.34 154.11-21.09 152.06-21.09ZM180.01 0Q180.01 0 180.01 0ZM194.44-32.79L194.44-37.01 209.85-37.01Q212.31-37.01 214.4-36.36 216.49-35.72 218.01-34.46 219.54-33.2 220.39-31.32 221.25-29.44 221.25-27L221.25-27Q221.25-25.61 220.75-24.26 220.25-22.9 219.36-21.74 218.46-20.58 217.24-19.68 216.02-18.77 214.58-18.29L214.58-18.29Q215.19-18.02 215.82-17.52 216.44-17.02 216.99-16.3 217.54-15.58 217.99-14.66 218.44-13.75 218.71-12.7L218.71-12.7 220.76-4.64 223.96-4.64 224.01 0 216.8 0 214.05-11.25Q213.29-14.28 211.74-15.71 210.19-17.14 207.5-17.14L207.5-17.14 202.74-17.14 202.74-4.2 206.45-4.2 206.45 0 194.44 0 194.44-4.2 197.96-4.2 197.96-32.79 194.44-32.79ZM209.26-32.79L202.74-32.79 202.74-21.14 209.85-21.14Q211.24-21.14 212.4-21.51 213.56-21.88 214.4-22.61 215.24-23.34 215.72-24.43 216.19-25.51 216.19-26.95L216.19-26.95Q216.19-29.71 214.53-31.25 212.87-32.79 209.26-32.79L209.26-32.79ZM243.85 0L243.85-2.34Q242.41-1 240.67-0.15 238.92 0.71 236.7 0.71L236.7 0.71Q234.84 0.71 233.29 0.12 231.74-0.46 230.62-1.48 229.5-2.49 228.87-3.83 228.25-5.18 228.25-6.69L228.25-6.69Q228.25-8.3 228.73-9.55 229.2-10.79 230-11.71 230.79-12.62 231.85-13.24 232.91-13.87 234.07-14.25 235.23-14.62 236.44-14.78 237.65-14.94 238.75-14.94L238.75-14.94Q240.51-14.94 241.7-14.83 242.9-14.72 243.88-14.53L243.88-14.53 243.9-16.6Q243.9-17.94 243.51-18.93 243.12-19.92 242.41-20.57 241.7-21.22 240.71-21.53 239.73-21.85 238.51-21.85L238.51-21.85Q237.36-21.85 236.31-21.69 235.26-21.53 234.34-21.28 233.43-21.02 232.66-20.69 231.89-20.36 231.35-20L231.35-20 229.86-23.14Q230.77-23.73 231.84-24.23 232.91-24.73 234.1-25.09 235.28-25.44 236.52-25.65 237.75-25.85 238.94-25.85L238.94-25.85Q241.14-25.85 242.9-25.33 244.66-24.8 245.88-23.71 247.1-22.61 247.76-20.91 248.42-19.21 248.42-16.85L248.42-16.85 248.39-4.2 251.2-4.2 251.2 0 243.85 0ZM237.7-3.1L237.7-3.1Q238.6-3.1 239.51-3.32 240.41-3.54 241.22-3.92 242.02-4.3 242.7-4.8 243.39-5.3 243.85-5.83L243.85-5.83 243.88-11.55 238.6-11.55Q237.28-11.55 236.2-11.25 235.11-10.96 234.32-10.4 233.52-9.84 233.09-9.01 232.65-8.18 232.65-7.1L232.65-7.1Q232.65-6.1 233.01-5.36 233.38-4.61 234.05-4.11 234.72-3.61 235.65-3.36 236.58-3.1 237.7-3.1ZM256.13-21.09L256.13-25.29 264.38-25.29 264.38-4.2 268.19-4.2 268.19 0 256.18 0 256.18-4.2 259.79-4.2 259.79-21.09 256.13-21.09ZM258.94-34.25L258.94-34.25Q258.94-34.89 259.19-35.46 259.45-36.04 259.88-36.46 260.3-36.89 260.89-37.15 261.48-37.4 262.14-37.4L262.14-37.4Q262.77-37.4 263.34-37.15 263.92-36.89 264.35-36.46 264.77-36.04 265.03-35.46 265.29-34.89 265.29-34.25L265.29-34.25Q265.29-33.59 265.03-33.01 264.77-32.42 264.35-31.97 263.92-31.52 263.34-31.26 262.77-31.01 262.14-31.01L262.14-31.01Q261.48-31.01 260.89-31.26 260.3-31.52 259.88-31.97 259.45-32.42 259.19-33.01 258.94-33.59 258.94-34.25ZM272.17-33.79L272.17-37.99 280.37-37.99 280.37-4.2 284.18-4.2 284.18 0 272.17 0 272.17-4.2 275.83-4.2 275.83-33.79 272.17-33.79ZM303.22-18.51Q303.22-19.53 302.74-20.25 302.27-20.97 301.51-21.42 300.75-21.88 299.83-22.08 298.9-22.29 298.02-22.29L298.02-22.29Q297.04-22.29 296.22-22.07 295.41-21.85 294.82-21.44 294.24-21.02 293.91-20.42 293.58-19.82 293.58-19.09L293.58-19.09Q293.58-17.82 294.35-17.08 295.11-16.33 296.92-15.7L296.92-15.7 301.78-13.99Q304.9-12.94 306.34-11.13 307.79-9.33 307.79-6.81L307.79-6.81Q307.79-5.13 307.11-3.72 306.44-2.32 305.21-1.33 303.98-0.34 302.24 0.21 300.51 0.76 298.39 0.76L298.39 0.76Q295.43 0.76 293.58-0.2 291.72-1.15 290.72-2.71L290.72-2.71 288.18-2.71 288.18-6.91 293.23-6.91Q293.23-5.86 293.69-5.11 294.14-4.37 294.88-3.91 295.63-3.44 296.57-3.22 297.51-3 298.48-3L298.48-3Q299.44-3 300.31-3.23 301.19-3.47 301.86-3.92 302.54-4.37 302.93-5 303.32-5.64 303.32-6.45L303.32-6.45Q303.32-7.67 302.52-8.52 301.73-9.38 299.83-10.06L299.83-10.06 294.99-11.87Q292.04-12.92 290.61-14.54 289.18-16.16 289.18-18.6L289.18-18.6Q289.18-20.21 289.78-21.58 290.38-22.95 291.51-23.94 292.65-24.93 294.28-25.49 295.92-26.05 298.02-26.05L298.02-26.05Q300.73-26.05 302.56-25.29 304.39-24.54 305.86-22.71L305.86-22.71 308.22-22.71 308.22-18.51 303.22-18.51Z" opacity="1" transform="matrix(1,0,0,1,0,0)" fill="#000000" class="wordmark-text-0" data-fill-palette-color="primary" id="text-0"></path></svg></g></svg></g></svg></g></svg></g><g><svg viewBox="0 0 88.64242631090697 71.0070151905792" height="71.0070151905792" width="88.64242631090697"><g><svg xmlns="http://www.w3.org/2000/svg" xmlns:xlink="http://www.w3.org/1999/xlink" version="1.1" x="0" y="0" viewBox="4.316999912261963 9.194000244140625 40 32.04199981689453" enable-background="new 0 0 50 50" xml:space="preserve" height="71.0070151905792" width="88.64242631090697" class="icon-icon-0" data-fill-palette-color="accent" id="icon-0"><path d="M21.756 9.194l-9.907 32.042h-1.844v-2.955L21.231 9.194H21.756zM7.159 28.656l-2.842 4.43v3.154h4.26l3.208-7.584H7.159zM14.921 21.376h-2.733l-1.374 1.943v1.387h2.566L14.921 21.376zM16.669 16.361h-1.455l-0.723 1.03v0.736h1.364L16.669 16.361zM18.016 12.876h-1.076l-0.528 0.761v0.542h1.008L18.016 12.876zM19.067 10.455h-0.501l-0.262 0.359v0.26h0.479L19.067 10.455zM26.87 9.194l9.902 32.042h1.853v-2.955L27.398 9.194H26.87zM41.462 28.656h-4.617l3.199 7.584h4.273v-3.154L41.462 28.656zM35.255 24.706h2.57v-1.387l-1.373-1.943H33.71L35.255 24.706zM32.783 18.128h1.355v-0.736l-0.728-1.03h-1.45L32.783 18.128zM32.224 14.179v-0.542l-0.542-0.761h-1.066l0.605 1.303H32.224zM30.326 11.073v-0.26l-0.258-0.359h-0.506l0.284 0.619H30.326zM24.056 21.376h-4.563l-0.7 3.33h5.264 0.528 5.25l-0.696-3.33h-4.554H24.056zM24.584 16.361h-0.528-3.239l-0.43 1.767h3.669 0.528 3.65l-0.416-1.767H24.584zM24.688 12.876h-0.745-2.367l-0.344 1.303h2.711 0.745 2.711l-0.344-1.303H24.688zM24.688 11.073h1.46l-0.104-0.619h-1.355-0.745-1.355l-0.095 0.619h1.45H24.688zM24.584 28.656h-0.528-6.781l-2.169 7.629h8.95 0.528 8.94l-2.178-7.629H24.584z" fill="#000000" data-fill-palette-color="accent"></path></svg></g></svg></g></svg></g></svg></g></svg></g></svg></g><defs></defs></svg><rect width="375.07952880859375" height="153.06980895996094" fill="none" stroke="none" visibility="hidden"></rect></g></svg></g></svg>